<?xml version="1.0" encoding="UTF-8" standalone="no"?>
<!-- Created with Inkscape (http://www.inkscape.org/) -->

<svg
   xmlns:dc="http://purl.org/dc/elements/1.1/"
   xmlns:cc="http://creativecommons.org/ns#"
   xmlns:rdf="http://www.w3.org/1999/02/22-rdf-syntax-ns#"
   xmlns:svg="http://www.w3.org/2000/svg"
   xmlns="http://www.w3.org/2000/svg"
   version="1.2"
   width="957.38464"
   height="727.37469"
   id="svg3053">
  <title
     id="title3074">Toilet Paper Roll</title>
  <defs
     id="defs3055" />
  <metadata
     id="metadata3058">
    <rdf:RDF>
      <cc:Work
         rdf:about="">
        <dc:format>image/svg+xml</dc:format>
        <dc:type
           rdf:resource="http://purl.org/dc/dcmitype/StillImage" />
        <cc:license
           rdf:resource="http://creativecommons.org/licenses/publicdomain/" />
        <dc:title>Toilet Paper Roll</dc:title>
        <dc:date>2016</dc:date>
        <dc:creator>
          <cc:Agent>
            <dc:title>Doodleguy</dc:title>
          </cc:Agent>
        </dc:creator>
        <dc:rights>
          <cc:Agent>
            <dc:title>Public domain</dc:title>
          </cc:Agent>
        </dc:rights>
      </cc:Work>
      <cc:License
         rdf:about="http://creativecommons.org/licenses/publicdomain/">
        <cc:permits
           rdf:resource="http://creativecommons.org/ns#Reproduction" />
        <cc:permits
           rdf:resource="http://creativecommons.org/ns#Distribution" />
        <cc:permits
           rdf:resource="http://creativecommons.org/ns#DerivativeWorks" />
      </cc:License>
    </rdf:RDF>
  </metadata>
  <g
     transform="translate(-52.8807,-317.76596)"
     id="layer1">
    <path
       d="m 752.10452,1044.3445 c -3.05302,-0.6845 -6.84724,-2.8425 -8.43159,-4.7955 -1.58433,-1.9529 -6.63094,-4.4273 -11.21469,-5.4985 -4.58375,-1.0713 -13.43693,-4.1896 -19.67372,-6.9295 -16.76338,-7.3644 -41.0867,-16.3403 -50.68706,-18.7047 -4.63737,-1.1421 -10.3287,-2.6243 -12.64738,-3.2937 -2.31869,-0.6694 -6.81911,-1.5062 -10.00091,-1.8595 -3.18183,-0.3534 -12.03501,-3.68374 -19.67372,-7.40078 -7.63874,-3.71704 -17.05045,-7.11182 -20.91493,-7.54397 -6.01055,-0.67208 -12.46319,-1.65046 -26.70005,-4.04826 -1.54579,-0.26026 -9.13422,-3.71196 -16.86318,-7.67025 -7.72896,-3.95827 -16.60288,-7.44302 -19.71981,-7.74383 -8.14003,-0.78563 -13.79476,-2.17813 -15.41183,-3.7952 -3.14557,-3.14557 -24.32798,-12.0655 -30.41267,-12.80677 -3.58773,-0.4371 -10.54379,-2.67282 -15.45792,-4.96829 -21.64438,-10.11049 -31.65836,-13.9659 -34.93217,-13.44904 -1.93224,0.30508 -3.51317,-0.62191 -3.51317,-2.05995 0,-1.43804 -5.40875,-3.4257 -12.01946,-4.41703 -6.6107,-0.99136 -15.78006,-3.82985 -20.37635,-6.30782 -4.59628,-2.47796 -12.78347,-5.48067 -18.19375,-6.67267 -14.2873,-3.1478 -29.19523,-9.25792 -31.58258,-12.94433 -1.13958,-1.7597 -5.56617,-4.06318 -9.83686,-5.11887 -4.27065,-1.05567 -10.95896,-4.95567 -14.86287,-8.66664 -3.90391,-3.71097 -9.59524,-7.21817 -12.64739,-7.7938 -12.29368,-2.31852 -22.73037,-5.82668 -28.56036,-9.60015 -5.20553,-3.36932 -23.04172,-9.21326 -40.52333,-13.27732 -3.91623,-0.91041 -35.26498,-16.56181 -47.48166,-23.70601 -2.31869,-1.35597 -8.01001,-4.1287 -12.64739,-6.16167 -4.63737,-2.03294 -12.38589,-6.5514 -17.21894,-10.04101 -4.83304,-3.48962 -9.37759,-5.75451 -10.09897,-5.0331 -0.7214,0.72138 -4.67172,-1.8024 -8.77847,-5.60842 -4.10677,-3.80602 -7.46685,-6.25773 -7.46685,-5.44821 0,0.80949 -1.98744,-0.51565 -4.41655,-2.94474 -2.42908,-2.42911 -6.00529,-4.41655 -7.94708,-4.41655 -7.61103,0 -37.358733,-32.40744 -45.14767,-49.18429 -14.65127,-31.55796 -24.976852,-62.92694 -28.216466,-85.72119 -7.25696,-51.06097 -6.468072,-92.32848 1.970463,-103.0785 1.426738,-1.81757 2.379873,-4.97942 2.1181,-7.02633 -0.772783,-6.04214 3.360187,-16.36907 6.551095,-16.36907 1.623138,0 2.240724,-0.71042 1.372411,-1.57873 -0.868286,-0.86828 1.426709,-4.82163 5.099989,-8.78518 3.673308,-3.96353 6.083956,-8.16876 5.357069,-9.34494 -0.726916,-1.17617 0.496817,-3.6477 2.719413,-5.49231 2.222596,-1.84458 5.570866,-7.9891 7.440628,-13.65451 5.826146,-17.6534 25.297558,-50.92345 31.278598,-53.44447 1.2499,-0.52683 8.70803,-6.85053 16.57364,-14.05265 7.86561,-7.20213 17.00658,-14.52019 20.31323,-16.26235 16.96428,-8.93791 54.99149,-26.09584 63.62801,-28.70899 30.06588,-9.09707 50.44172,-14.55852 60.42641,-16.19644 6.18317,-1.01432 12.78053,-3.06362 14.6608,-4.55399 1.88028,-1.49037 5.03082,-2.1724 7.00123,-1.51558 1.97041,0.6568 5.30805,-0.5313 7.41696,-2.64024 2.10894,-2.10891 6.23064,-3.07388 9.15933,-2.14435 2.92871,0.92956 5.32491,0.55893 5.32491,-0.82357 0,-2.09056 25.09518,-7.14369 52.83636,-10.63904 3.55439,-0.44786 9.46744,-2.78316 13.14004,-5.18953 5.02726,-3.294 7.02183,-3.52503 8.07084,-0.9349 1.03602,2.55809 1.45023,2.49688 1.61521,-0.23861 0.12198,-2.02347 1.48663,-2.89738 3.03242,-1.94202 1.54579,0.95535 2.81053,0.25013 2.81053,-1.56718 0,-1.92049 2.35396,-2.68864 5.62106,-1.83427 3.09159,0.80848 5.62107,0.32361 5.62107,-1.07747 0,-1.40108 2.27653,-2.54741 5.05895,-2.54741 2.78243,0 6.53263,-1.47367 8.33379,-3.27483 1.80116,-1.80116 8.96601,-3.44332 15.92188,-3.64925 6.9559,-0.20601 13.39047,-1.1178 14.29908,-2.02642 1.87055,-1.87052 23.0221,4.03929 32.8215,9.17042 27.23615,14.26131 59.01007,41.56523 62.97242,54.11338 1.05822,3.35122 6.01518,11.15207 11.01551,17.33524 5.0003,6.18317 9.97075,14.11117 11.04544,17.61779 1.07469,3.50658 5.59619,10.36332 10.04773,15.23715 4.45157,4.87385 7.47793,9.85796 6.72524,11.07585 -0.75269,1.21789 -0.0911,4.47906 1.46999,7.24707 10.06263,17.8413 14.49113,123.7954 5.62311,134.53556 -2.71261,3.28526 -3.02781,5.2578 -0.95198,5.95737 2.11504,0.71275 1.44369,6.07682 -2.1079,16.84239 -2.86621,8.68811 -5.2191,17.81354 -5.22863,20.27874 -0.008,2.46517 -1.96017,8.20793 -4.33476,12.76166 -2.37459,4.55374 -6.67858,17.20113 -9.56441,28.10531 -5.99868,22.66615 -4.59685,27.25474 10.85866,35.54364 5.06708,2.71747 15.59086,10.72675 23.3862,17.79839 7.79537,7.07166 15.30337,12.85753 16.68446,12.85753 1.3811,0 10.99486,5.69133 21.36392,12.64739 10.36906,6.95606 20.66387,12.64739 22.87733,12.64739 2.21349,0 6.02119,1.76875 8.46161,3.93058 7.51106,6.65365 56.08305,32.89943 67.91639,36.69851 3.73118,1.19788 7.41635,2.39294 8.18924,2.65564 0.7729,0.26279 4.56712,2.26914 8.4316,4.45871 3.86448,2.18958 8.29106,4.23525 9.83686,4.54595 1.54579,0.31071 12.29607,5.87205 23.88951,12.35853 11.59344,6.48645 26.13794,12.4174 32.3211,13.17984 6.18317,0.76244 15.66871,3.37671 21.07899,5.80948 5.41027,2.4328 11.41778,4.42389 13.35002,4.42465 1.93224,7.8e-4 3.51316,0.73917 3.51316,1.6409 0,0.9017 5.37514,1.72926 11.94476,1.83901 20.70791,0.34595 40.40178,4.12572 56.91325,10.92313 17.44727,7.18265 28.88276,9.95631 41.0489,9.95631 11.14589,0 13.16045,1.01839 18.06894,9.13422 7.0462,11.65038 10.0629,21.78162 6.4858,21.78162 -1.5225,0 -4.647,1.87878 -6.9432,4.17507 -2.71148,2.7114 -7.33967,3.67213 -13.20204,2.74046 -12.05743,-1.91624 -61.55333,8.4678 -76.90346,16.13403 -11.05396,5.52058 -37.41295,30.47068 -37.41295,35.41316 0,1.09383 -6.28328,8.30681 -13.96286,16.02888 -7.67955,7.72205 -14.02289,15.30483 -14.09624,16.85063 -0.1751,3.68651 -24.37318,26.27401 -49.92161,46.59871 -3.75501,2.9872 -35.02748,5.2328 -44.20732,3.1744 z m 52.89644,-34.7262 c 7.78419,-7.5029 15.00852,-13.64165 16.05407,-13.64165 1.04554,0 5.39234,-5.37514 9.65951,-11.94476 4.2672,-6.56961 11.39133,-14.88209 15.83141,-18.47215 4.44008,-3.59006 8.07289,-7.59302 8.07289,-8.89547 0,-2.90809 9.26862,-14.37427 22.88682,-28.31324 16.41691,-16.80357 31.76597,-24.36677 60.02384,-29.57642 1.54579,-0.28499 3.4429,-0.75803 4.2158,-1.0512 0.77289,-0.29316 4.56711,-1.06364 8.43159,-1.71217 3.86448,-0.64851 10.18666,-1.92232 14.04925,-2.83071 6.5036,-1.52947 6.65514,-1.92055 2.04913,-5.28855 -2.7356,-2.00031 -10.25976,-4.48221 -16.72035,-5.5153 -6.4606,-1.0331 -13.11332,-3.01267 -14.78382,-4.39905 -3.64177,-3.02241 -10.98746,-4.44862 -36.78541,-7.14203 -10.71253,-1.11843 -21.37445,-2.38957 -23.69314,-2.82476 -11.89487,-2.23243 -21.43384,-5.18318 -24.46904,-7.56918 -1.86451,-1.46572 -4.62279,-1.90306 -6.12949,-0.97188 -1.5067,0.93119 -3.48118,0.49291 -4.38774,-0.97393 -0.90657,-1.46687 -5.17543,-2.56672 -9.48633,-2.44415 -4.60649,0.13097 -12.87153,-3.4234 -20.04659,-8.62097 -6.71467,-4.8641 -14.47359,-8.84381 -17.24202,-8.84381 -2.76843,0 -5.89492,-1.3938 -6.94774,-3.09729 -1.73104,-2.80089 -17.77909,-10.66198 -22.99625,-11.26464 -1.1667,-0.13462 -4.65078,-1.66364 -7.74236,-3.39751 -9.12428,-5.11719 -24.75314,-10.14388 -27.07582,-8.70837 -1.18402,0.73175 -3.42128,-1.03984 -4.97171,-3.93685 -1.55046,-2.89704 -8.88614,-7.55561 -16.30156,-10.35237 -7.41545,-2.79679 -16.70672,-7.75504 -20.64731,-11.01835 -3.94059,-3.26333 -13.10995,-8.38502 -20.37635,-11.38155 -7.26641,-2.99654 -13.21163,-6.45369 -13.21163,-7.68256 0,-1.22888 -1.31994,-2.23432 -2.93319,-2.23432 -1.61327,0 -6.35604,-3.17581 -10.53949,-7.05735 -4.18347,-3.88154 -10.13578,-7.81556 -13.22737,-8.74224 -3.09158,-0.92672 -11.31238,-6.33087 -18.26845,-12.00921 -24.70783,-20.16946 -40.99314,-30.28785 -51.48887,-31.99106 -7.87303,-1.27764 -11.04162,-0.67048 -12.19565,2.33684 -0.8575,2.23463 -3.16601,4.06293 -5.13004,4.06293 -1.96405,0 -5.14543,1.89711 -7.06977,4.2158 -1.92435,2.31869 -5.37523,4.2158 -7.66859,4.2158 -2.2934,0 -6.65692,3.16184 -9.69673,7.02632 -3.03981,3.86448 -7.23518,7.02633 -9.32307,7.02633 -2.08791,0 -7.55383,3.16185 -12.14649,7.02633 -4.59269,3.86448 -8.96186,7.02633 -9.70926,7.02633 -0.74743,0 -5.93396,1.91155 -11.52562,4.24792 -5.59167,2.33634 -10.48891,4.18187 -10.88275,4.10121 -0.39381,-0.0807 -6.87222,2.96997 -14.39646,6.77922 -7.52422,3.80926 -15.42883,6.25498 -17.56582,5.43495 -2.13696,-0.82005 -3.88539,-0.0911 -3.88539,1.62025 0,1.71119 -2.33347,3.11123 -5.18546,3.11123 -2.85201,0 -7.47461,2.52947 -10.27246,5.62106 -2.79786,3.09158 -6.68269,5.62106 -8.63297,5.62106 -1.95031,0 -3.96757,0.94855 -4.48285,2.1079 -0.51526,1.15934 -5.99579,4.62048 -12.17896,7.69141 -6.18317,3.07093 -13.7716,8.35942 -16.86319,11.75223 -3.09158,3.39282 -7.41277,6.57156 -9.60265,7.06391 -2.18986,0.49232 -6.20962,2.79223 -8.93277,5.11092 -13.24575,11.27838 -26.35781,18.00024 -46.80942,23.99676 -8.11541,2.37946 -14.75529,5.28799 -14.75529,6.46335 0,2.0952 16.98075,9.21826 25.29478,10.61063 10.81192,1.81071 14.20265,3.23557 24.3073,10.2144 5.95338,4.11175 15.48063,9.41238 21.17164,11.77918 5.69102,2.36678 11.15354,5.6078 12.13897,7.20221 0.9854,1.59445 2.88161,2.22533 4.21377,1.40201 1.33216,-0.82332 3.21654,-0.21163 4.18747,1.35943 0.97092,1.571 3.6572,2.85637 5.96945,2.85637 2.31228,0 9.58155,2.44968 16.15395,5.44377 6.5724,2.99409 18.20184,6.91405 25.84323,8.71104 7.64135,1.79703 17.87874,5.03864 22.74973,7.20362 4.87098,2.16501 9.99318,3.93635 11.38265,3.93635 1.38947,0 4.03117,1.50487 5.87049,3.34419 3.48534,3.48534 5.78658,4.24893 20.94979,6.95154 5.03324,0.89709 11.36463,3.57013 14.06977,5.94011 2.70513,2.36998 4.91843,3.46851 4.91843,2.44115 0,-1.02734 6.37507,1.46552 14.16681,5.53972 7.79175,4.0742 14.9253,6.64918 15.8523,5.72219 0.927,-0.92703 4.98602,0.16975 9.02006,2.43701 14.95812,8.40736 26.82593,12.19124 48.08729,15.33186 16.49585,2.43671 29.76321,6.85798 35.92499,11.9718 2.08345,1.72909 6.55149,3.44636 9.92896,3.81608 12.63834,1.38354 25.37448,4.57178 36.53704,9.14628 4.35155,1.78331 9.47374,3.2424 11.38265,3.2424 1.90889,0 4.67223,1.10856 6.14073,2.46346 3.9262,3.62249 34.99111,14.64689 34.99111,12.41779 0,-1.0466 1.58093,0.084 3.51317,2.5129 3.6631,4.6043 11.47683,7.0441 31.17775,9.7348 6.42558,0.8776 12.02876,1.9076 12.45152,2.2889 3.52255,3.1768 18.0557,-4.5394 29.71358,-15.7762 z M 277.05666,817.07188 c 6.955,-0.95327 12.64545,-2.82607 12.64545,-4.16175 0,-1.3357 1.82539,-2.42852 4.05644,-2.42852 2.23103,0 5.70906,-2.35947 7.72896,-5.24327 2.01987,-2.8838 4.93726,-5.40294 6.48305,-5.59807 1.5458,-0.19506 5.03827,-2.26223 7.76109,-4.59359 2.72281,-2.33134 6.20084,-4.23879 7.72896,-4.23879 1.52811,0 2.48482,-0.94855 2.12597,-2.1079 -0.35882,-1.15934 1.85447,-4.99456 4.91843,-8.52271 3.06398,-3.52814 5.58618,-7.32236 5.6049,-8.43159 0.0197,-1.10923 4.42999,-8.34048 9.80282,-16.06944 5.37284,-7.72896 9.83804,-14.68502 9.92269,-15.45792 0.19646,-1.79413 6.84716,-22.5504 9.00542,-28.10531 0.90092,-2.31868 1.42014,-5.21558 1.15387,-6.43755 -0.26644,-1.22196 0.84389,-4.70322 2.46705,-7.73612 3.27042,-6.11083 3.70498,-20.77087 1.37112,-46.25274 -0.84946,-9.27475 -2.01119,-23.18688 -2.58161,-30.91584 -0.57043,-7.72896 -1.84489,-18.47924 -2.83218,-23.88952 -0.98725,-5.41027 -2.34238,-13.63107 -3.01137,-18.26845 -2.48203,-17.2052 -7.00926,-35.39698 -10.32665,-41.49552 -1.8799,-3.45591 -3.62196,-8.18061 -3.87125,-10.4993 -0.92787,-8.63021 -19.17749,-46.57766 -25.06072,-52.11014 -3.35504,-3.15502 -6.85303,-7.69855 -7.77331,-10.09677 -0.92028,-2.39823 -6.16226,-6.49059 -11.64881,-9.09412 -5.48655,-2.60357 -10.73631,-5.96463 -11.66609,-7.46905 -0.92978,-1.50442 -3.89242,-2.73532 -6.58361,-2.73532 -2.6912,0 -6.474,-1.58092 -8.40624,-3.51316 -1.93224,-1.93224 -4.39848,-3.57769 -5.48054,-3.65659 -1.08205,-0.079 -9.10342,-2.28788 -17.82526,-4.90893 -8.72183,-2.62107 -20.10448,-5.31682 -25.29478,-5.99061 -5.19029,-0.67377 -9.43689,-1.45375 -9.43689,-1.73326 0,-0.27937 -7.58844,-0.87919 -16.86319,-1.33267 -21.45576,-1.049 -38.44163,4.53572 -51.53005,16.94247 -5.66591,5.37079 -11.14704,9.77604 -12.1803,9.78945 -5.39754,0.07 -15.94788,23.94471 -17.3986,39.3718 -0.21809,2.31869 -1.20209,4.84816 -2.18676,5.62106 -0.98467,0.7729 -4.14651,5.36291 -7.02632,10.20006 -2.87981,4.83715 -8.87215,13.38459 -13.3163,18.99436 -4.444152,5.60973 -8.080276,13.35092 -8.080276,17.20258 0,3.8517 -1.047457,7.00309 -2.32771,7.00309 -7.368088,0 -20.088523,54.64167 -14.111142,60.61553 1.802169,1.80113 2.186509,4.58682 4.239433,30.72672 0.728377,9.27476 1.502594,16.86319 1.720466,16.86319 0.217817,0 0.831833,3.16185 1.364345,7.02633 1.620636,11.76086 8.28463,35.94112 10.521756,38.17828 1.158304,1.1583 2.106015,3.75484 2.106015,5.77007 0,7.13378 14.332193,34.87347 19.773773,38.27179 3.03655,1.89635 5.52101,4.28651 5.52101,5.31148 0,3.84467 17.82281,21.81776 20.18661,20.35682 1.35582,-0.83793 6.89802,2.36863 12.31602,7.12571 5.418,4.75707 11.56871,8.64921 13.66823,8.64921 2.09953,0 4.42569,1.58545 5.16927,3.5232 0.74358,1.93775 6.25405,5.29566 12.24546,7.46204 5.9914,2.16636 14.06789,6.28561 17.94771,9.1539 3.87983,2.86826 12.10063,5.73846 18.26846,6.37822 15.65932,1.62421 30.45604,4.43502 32.12319,6.10214 0.77329,0.77332 4.29061,0.68203 7.81625,-0.20292 3.52565,-0.8849 12.10075,-2.38884 19.05574,-3.34214 z m -49.18623,-99.33779 c -2.31869,-1.49847 -6.42909,-2.74384 -9.13422,-2.76751 -5.89392,-0.0514 -16.16057,-9.70813 -16.16057,-15.20025 0,-2.15331 -1.95421,-4.665 -4.34269,-5.58154 -2.3885,-0.91657 -6.3032,-6.42701 -8.69941,-12.24546 -2.39617,-5.81844 -6.20911,-14.54554 -8.47321,-19.39353 -4.82585,-10.33343 -6.73052,-47.74873 -2.836,-55.71133 5.02034,-10.2644 35.59344,-30.77071 35.59344,-23.87361 0,1.72831 2.32948,2.31771 5.35941,1.35606 15.51702,-4.92493 50.85122,14.57341 50.85122,28.06101 0,3.66072 1.09428,7.33214 2.43172,8.15872 4.65823,2.87894 5.4571,20.43585 1.87378,41.18069 -1.98415,11.48681 -3.14613,21.69035 -2.5822,22.67455 0.56393,0.98419 -0.85786,3.35234 -3.15951,5.26257 -2.30166,1.91021 -4.18486,6.28407 -4.18486,9.71972 0,6.91363 -5.77881,12.73112 -17.69805,17.81646 -9.4512,4.03235 -13.26973,4.1425 -18.83885,0.54345 z m 19.59904,-25.17396 c 4.00085,-6.47349 9.5159,-37.48219 9.19333,-51.68993 -0.45766,-20.15699 -6.67633,-31.12534 -19.89184,-35.08479 -12.35841,-3.70268 -28.46439,-4.36012 -28.78929,-1.1752 -0.42082,4.12491 -2.37015,10.70374 -6.70674,22.63464 -3.9785,10.94567 -3.98221,13.69314 -0.0391,28.91005 5.14238,19.84505 12.71777,33.24991 21.4232,37.90889 7.93537,4.24689 21.77481,3.40814 24.81047,-1.50366 z m 118.96542,89.11354 c 6.48943,-3.47804 12.22053,-7.27225 12.73578,-8.4316 0.51528,-1.15934 2.57372,-2.1079 4.57431,-2.1079 2.00059,0 5.37323,-2.09303 7.49476,-4.65114 3.359,-4.05034 19.46669,-12.40403 23.53668,-12.20648 0.79077,0.0382 7.71083,-3.10901 15.3779,-6.99423 7.66707,-3.88519 16.51165,-7.06399 19.65464,-7.06399 3.14296,0 5.71448,-1.14102 5.71448,-2.53557 0,-1.39459 3.79422,-3.85827 8.43159,-5.47489 4.63738,-1.61659 8.43159,-4.26979 8.43159,-5.89599 0,-1.6262 1.70279,-2.95673 3.78399,-2.95673 4.86941,0 20.89669,-7.97472 23.05909,-11.47355 0.91303,-1.47729 7.95366,-5.87521 15.64586,-9.77314 7.69217,-3.89792 14.67558,-8.88471 15.51865,-11.0817 0.84305,-2.19699 3.80892,-4.71694 6.59081,-5.59987 2.78189,-0.88293 5.68048,-3.98578 6.44129,-6.89521 0.76084,-2.90941 4.37543,-5.7132 8.03241,-6.23061 7.23819,-1.02411 18.96872,-20.96004 19.18064,-32.59736 0.0638,-3.499 1.31311,-8.55795 2.77644,-11.24212 9.33009,-17.11417 14.25796,-49.08567 15.04766,-97.62781 0.41062,-25.23998 -2.82402,-61.70198 -6.04174,-68.1042 -1.3737,-2.7333 -5.97308,-11.92567 -10.22083,-20.42753 -4.24772,-8.50185 -10.10493,-17.72048 -13.01602,-20.48585 -2.91106,-2.76533 -5.29285,-7.44526 -5.29285,-10.39983 0,-2.95454 -1.66782,-6.38331 -3.70624,-7.61946 -2.03845,-1.23616 -7.6021,-7.93888 -12.3637,-14.89495 -11.30213,-16.51097 -15.60626,-20.47573 -36.67307,-33.78148 -24.48419,-15.46416 -44.14942,-18.49597 -61.84902,-9.53529 -7.0713,3.57994 -13.90227,5.86294 -15.17993,5.07329 -1.27764,-0.78962 -3.90392,-0.44806 -5.83616,0.75904 -1.93224,1.20712 -4.7779,2.49671 -6.32369,2.86578 -1.54579,0.36908 -7.86949,2.02204 -14.05266,3.67323 -6.18316,1.65118 -13.7716,3.67766 -16.86318,4.50326 -7.16031,1.91214 -23.43005,4.47203 -31.61847,4.97486 -3.47804,0.2136 -6.3237,1.33689 -6.3237,2.49623 0,1.15934 -0.94855,1.89132 -2.1079,1.62662 -4.32448,-0.98737 -28.80794,4.00436 -28.80794,5.87339 0,1.06885 -9.38307,3.52 -20.8513,5.44701 -11.4682,1.92698 -26.17116,6.07389 -32.67321,9.21537 -6.50205,3.14144 -14.27918,5.06912 -17.28252,4.28375 -6.40545,-1.67508 -21.94049,3.17691 -21.94049,6.85255 0,2.22988 11.19648,3.96611 17.86165,2.76978 1.32205,-0.23721 4.03868,0.92545 6.03694,2.58386 1.99826,1.65841 5.97555,3.56345 8.83839,4.23339 28.84259,6.74961 52.79473,16.27 62.14758,24.70218 3.77533,3.40369 9.16984,8.3061 11.98773,10.89424 2.8179,2.5881 7.74866,6.11065 10.95728,7.82783 3.48236,1.86372 5.83379,5.9144 5.83379,10.04959 0,3.8101 0.94855,6.93546 2.1079,6.94521 3.2739,0.0281 11.94476,16.64737 11.94476,22.89501 0,3.07672 1.84432,7.43835 4.09848,9.69251 2.25416,2.25419 6.20616,11.33319 8.78221,20.17562 2.57605,8.84241 5.78168,18.60659 7.1236,21.69817 2.70198,6.22488 5.03962,20.81592 6.7541,42.15797 0.6209,7.72896 2.21042,19.74398 3.53224,26.70004 1.32185,6.95607 2.1789,19.28727 1.90459,27.40268 -0.27431,8.11541 0.36961,14.75529 1.43101,14.75529 2.48839,0 1.76035,33.00299 -0.78417,35.54754 -1.05943,1.0594 -1.92622,5.31533 -1.92622,9.45757 0,4.14225 -2.08531,11.71148 -4.63404,16.8205 -2.54873,5.10904 -5.08189,13.1356 -5.62926,17.83683 -0.54738,4.70121 -2.57246,9.52245 -4.5002,10.71386 -1.92771,1.19141 -3.55296,3.16086 -3.61161,4.37662 -0.21023,4.35632 -10.32564,23.09528 -14.20488,26.31477 -3.92814,3.26005 -5.37944,8.21673 -2.40584,8.21673 0.85311,0 6.86062,-2.84566 13.35002,-6.32369 z"
       id="path3072"
       style="fill:#000000" />
  </g>
  <g
     id="layer2">
    <path
       d="m 142.20447,105.73516 c -35.41831,1.17659 -68.297846,27.31433 -75.703984,62.21982 -8.912778,22.55721 -26.63078,41.47498 -33.710427,64.04981 -13.852513,19.35038 -14.805528,47.33452 -11.879799,70.78125 5.134269,60.7032 21.99498,130.31252 79.68591,161.72438 41.02291,28.29265 97.44578,53.30809 145.24119,26.14576 39.57803,-26.17137 64.23928,-72.54826 71.66133,-118.89759 2.69952,-59.30693 -6.08589,-120.02885 -27.06465,-175.67948 -12.59662,-38.61343 -43.59476,-70.0677 -83.60186,-79.4603 -21.00057,-5.9497 -42.63075,-11.52502 -64.62771,-10.88365 z m 24.65677,161.03953 c 26.62373,1.34338 54.83321,18.39802 54.033,47.96512 1.77913,25.67202 0.005,56.18434 -17.04784,76.28188 -17.86449,20.07519 -45.52473,5.58407 -57.30773,-12.90628 -17.54909,-25.41334 -25.48888,-60.02664 -18.58889,-90.24763 8.78847,-12.50107 23.19268,-21.5026 38.91146,-21.09309 z"
       id="path2986"
       style="color:#000000;fill:#f2f2f2;fill-opacity:1;fill-rule:nonzero;stroke:#000000;stroke-width:1.70200002;stroke-linecap:butt;stroke-linejoin:bevel;stroke-miterlimit:4;stroke-opacity:1;stroke-dasharray:none;stroke-dashoffset:0;marker:none;visibility:visible;display:inline;overflow:visible;enable-background:accumulate" />
    <path
       d="m 163.4902,284.49674 c -19.58481,3.61874 -14.35473,31.47912 -16.95153,45.9425 2.39262,19.97844 13.46463,46.23637 35.54042,49.98774 21.05911,-4.73454 19.09048,-33.58101 21.67099,-50.46932 4.73126,-26.16341 -14.03061,-47.10919 -40.25988,-45.46092 z"
       id="path2988"
       style="color:#000000;fill:#f2f2f2;fill-opacity:1;fill-rule:nonzero;stroke:#000000;stroke-width:1.70200002;stroke-linecap:butt;stroke-linejoin:bevel;stroke-miterlimit:4;stroke-opacity:1;stroke-dasharray:none;stroke-dashoffset:0;marker:none;visibility:visible;display:inline;overflow:visible;enable-background:accumulate" />
    <path
       d="m 409.76895,23.096458 c -40.09772,6.072441 -78.36305,21.460539 -118.57297,27.692853 -40.68352,10.789306 -81.89184,21.57831 -122.50474,31.348552 -2.95901,8.564902 16.17561,6.008953 20.80415,9.63155 41.37794,11.977327 88.935,28.128457 106.89885,70.679407 34.01146,65.27374 41.10198,140.52671 39.59703,212.96976 -3.33406,33.95677 -22.93806,63.71259 -36.69621,93.32972 11.15543,3.20279 22.2284,-11.93536 32.84359,-15.31416 24.11779,-15.9104 52.55719,-23.32673 77.24503,-37.27411 26.28819,-16.24295 55.24279,-29.26641 78.40083,-50.9509 33.38212,-23.318 38.48792,-66.67057 45.26828,-103.7318 1.98068,-38.69441 4.88288,-78.76811 -3.7563,-116.73439 C 506.12597,94.340066 473.61247,37.599579 415.93314,23.289089 c -2.05309,-0.06303 -4.11054,-0.447988 -6.16419,-0.192631 z"
       id="path2990"
       style="color:#000000;fill:#f2f2f2;fill-opacity:1;fill-rule:nonzero;stroke:#000000;stroke-width:1.70200002;stroke-linecap:butt;stroke-linejoin:bevel;stroke-miterlimit:4;stroke-opacity:1;stroke-dasharray:none;stroke-dashoffset:0;marker:none;visibility:visible;display:inline;overflow:visible;enable-background:accumulate" />
    <path
       d="m 497.89763,387.45801 c -24.34904,7.87477 -42.63478,28.66761 -66.07243,39.20041 -38.17428,19.05193 -79.53334,31.769 -113.29628,58.83482 -25.56395,18.72115 -55.28341,31.74291 -83.09104,45.86014 15.91568,12.98235 39.90683,13.1916 56.53029,26.7392 59.91696,32.18247 127.12894,46.98586 188.97793,74.68103 28.12153,9.80427 57.04874,17.92056 85.81712,26.1015 40.89803,13.71628 83.16688,24.3281 122.41701,42.76408 22.77293,9.26737 50.093,7.32161 66.74664,-12.32838 37.04809,-31.14383 58.72879,-81.62909 104.79127,-100.74602 17.24627,-7.94271 40.40218,-5.53521 55.38142,-16.08469 -15.05419,-12.21157 -38.55817,-12.83598 -57.30773,-18.10732 -46.16453,-6.33242 -92.02692,-16.9599 -132.50067,-40.95001 -28.32218,-13.89393 -57.98976,-22.72607 -84.13565,-40.5862 -47.49652,-23.30927 -87.88988,-58.51726 -133.75949,-84.12645 -3.36754,-1.14503 -6.95647,-1.59301 -10.49839,-1.25211 z"
       id="path2992"
       style="color:#000000;fill:#f2f2f2;fill-opacity:1;fill-rule:nonzero;stroke:#000000;stroke-width:1.70200002;stroke-linecap:butt;stroke-linejoin:bevel;stroke-miterlimit:4;stroke-opacity:1;stroke-dasharray:none;stroke-dashoffset:0;marker:none;visibility:visible;display:inline;overflow:visible;enable-background:accumulate" />
  </g>
  <text
     x="759.93384"
     y="340.94525"
     transform="matrix(0.93969262,0.34202014,-0.34202014,0.93969262,0,0)"
     id="text3006"
     xml:space="preserve"
     style="font-size:57.25662613px;font-style:normal;font-variant:normal;font-weight:bold;font-stretch:normal;line-height:125%;letter-spacing:0px;word-spacing:0px;fill:#000000;fill-opacity:1;stroke:none;font-family:Comic Sans MS;-inkscape-font-specification:Comic Sans MS Bold"><tspan
       x="759.93384"
       y="340.94525"
       id="tspan3008">is near!</tspan></text>
  <text
     x="561.57367"
     y="220.51468"
     transform="matrix(0.87461971,0.48480962,-0.48480962,0.87461971,0,0)"
     id="text3056"
     xml:space="preserve"
     style="font-size:54.40530014px;font-style:normal;font-variant:normal;font-weight:bold;font-stretch:normal;line-height:125%;letter-spacing:0px;word-spacing:0px;fill:#000000;fill-opacity:1;stroke:none;font-family:Comic Sans MS;-inkscape-font-specification:Comic Sans MS Bold"><tspan
       x="561.57367"
       y="220.51468"
       id="tspan3058">The end</tspan></text>
</svg>
